<svg width="111" height="111" viewBox="0 0 111 111" fill="none" xmlns="http://www.w3.org/2000/svg">
<path d="M9.89949 65.0538C4.43215 59.5865 4.43216 50.7221 9.89949 45.2548L45.2548 9.89946C50.7222 4.43212 59.5865 4.43212 65.0538 9.89946L82.0648 26.9104L74.2395 34.7357L60.1031 20.274C57.379 17.4873 52.9037 17.4617 50.148 20.2171L20.1562 50.2045C17.4221 52.9381 17.422 57.3706 20.1559 60.1044L50.2042 90.1515C52.938 92.8852 57.3704 92.885 60.104 90.151L90.0938 60.1568C92.8476 57.4025 92.8238 52.9302 90.0407 50.2055L74.2395 34.7357L82.0648 26.9104L100.409 45.2548C105.877 50.7221 105.877 59.5865 100.409 65.0538L65.0538 100.409C59.5865 105.876 50.7222 105.876 45.2548 100.409L9.89949 65.0538Z" fill="#EE0D11"/>
<path d="M9.89949 65.0538C4.43215 59.5865 4.43216 50.7221 9.89949 45.2548L45.2548 9.89946C50.7222 4.43212 59.5865 4.43212 65.0538 9.89946L82.0648 26.9104L74.2395 34.7357L60.1031 20.274C57.379 17.4873 52.9037 17.4617 50.148 20.2171L20.1562 50.2045C17.4221 52.9381 17.422 57.3706 20.1559 60.1044L50.2042 90.1515C52.938 92.8852 57.3704 92.885 60.104 90.151L90.0938 60.1568C92.8476 57.4025 92.8238 52.9302 90.0407 50.2055L74.2395 34.7357L82.0648 26.9104L100.409 45.2548C105.877 50.7221 105.877 59.5865 100.409 65.0538L65.0538 100.409C59.5865 105.876 50.7222 105.876 45.2548 100.409L9.89949 65.0538Z" fill="url(#paint0_linear_22_83)"/>
<path d="M33.6499 61.9L45.6144 50.7702C50.9886 45.771 59.3112 45.771 64.6854 50.7702L76.6499 61.9L69.1499 68.4L59.9131 59.823C57.2273 57.329 53.0725 57.329 50.3867 59.823L41.1499 68.4L33.6499 61.9Z" fill="#EE0D11"/>
<path d="M33.6499 61.8999L45.6144 50.7701C50.9886 45.7709 59.3112 45.7709 64.6854 50.7701L76.6499 61.8999L69.1499 68.3999L59.9131 59.8228C57.2273 57.3289 53.0725 57.3289 50.3867 59.8228L41.1499 68.3999L33.6499 61.8999Z" fill="url(#paint1_linear_22_83)"/>
<defs>
<linearGradient id="paint0_linear_22_83" x1="63.5" y1="13" x2="47.5" y2="93.5" gradientUnits="userSpaceOnUse">
<stop stop-color="#EE0D11"/>
<stop offset="1" stop-color="#B51304"/>
</linearGradient>
<linearGradient id="paint1_linear_22_83" x1="60" y1="47.5" x2="55" y2="65.5" gradientUnits="userSpaceOnUse">
<stop stop-color="#EE0D11"/>
<stop offset="1" stop-color="#B51304"/>
</linearGradient>
</defs>
</svg>
