<svg width="80" height="80" viewBox="0 0 80 80" fill="none" xmlns="http://www.w3.org/2000/svg">
<path d="M76.6761 55.9645C79.3258 49.8772 80.4187 43.2261 79.8562 36.611C79.2937 29.9958 77.0935 23.6247 73.454 18.0722C69.8145 12.5197 64.8502 7.96031 59.0088 4.80532C53.1674 1.65033 46.6325 -0.00108204 39.9935 5.31787e-07C33.3545 0.0010831 26.8201 1.65463 20.9797 4.81152C15.1393 7.96842 10.1765 12.5294 6.53884 18.0831C2.90118 23.6368 0.703065 30.0086 0.142725 36.624C-0.417614 43.2393 0.677442 49.89 3.32914 55.9765L10.6633 52.7812C8.54195 47.912 7.66591 42.5914 8.11418 37.2992C8.56245 32.0069 10.3209 26.9095 13.2311 22.4665C16.1412 18.0235 20.1114 14.3747 24.7838 11.8492C29.4561 9.3237 34.6836 8.00087 39.9948 8C45.306 7.99913 50.5339 9.32027 55.207 11.8443C59.8802 14.3682 63.8516 18.0157 66.7632 22.4577C69.6748 26.8998 71.4349 31.9967 71.8849 37.2888C72.3349 42.5809 71.4606 47.9018 69.3409 52.7716L76.6761 55.9645Z" fill="#EF9228"/>
<path d="M56.9769 76.2186C51.8258 78.633 46.2191 79.921 40.5308 79.9965C34.8425 80.072 29.2035 78.9333 23.9903 76.6564L27.1922 69.3251C31.3628 71.1466 35.874 72.0576 40.4246 71.9972C44.9753 71.9368 49.4607 70.9064 53.5815 68.9749L56.9769 76.2186Z" fill="#EF9228"/>
<path d="M36.5902 20.3316C37.5195 18.7947 38.704 17 40.5 17V17V17C42.296 17 43.4805 18.7947 44.4098 20.3316L69 61L61.5 66L40.5 30L19.5 66L12 61L36.5902 20.3316Z" fill="#FFFEFF"/>
</svg>
